<svg width="30" height="50" viewBox="0 0 30 50" fill="none" xmlns="http://www.w3.org/2000/svg">
<path fill-rule="evenodd" clip-rule="evenodd" d="M18.0342 7.24107C13.749 5.56534 8.9168 7.68068 7.24107 11.9658C5.56534 16.251 7.68068 21.0832 11.9658 22.7589C16.251 24.4347 21.0832 22.3193 22.7589 18.0342C24.4347 13.749 22.3193 8.9168 18.0342 7.24107ZM20.4615 1.03393C12.7483 -1.98239 4.05024 1.82523 1.03393 9.53848C-1.98239 17.2517 1.82523 25.9498 9.53848 28.9661C17.2517 31.9824 25.9498 28.1748 28.9661 20.4615C31.9824 12.7483 28.1748 4.05024 20.4615 1.03393Z" fill="#51E0D7"/>
<path d="M17.7177 49.2249H10.5613L27.2911 6.44379C30.0496 10.4063 30.8474 15.6258 28.9658 20.4613L17.7177 49.2249Z" fill="#2D87DB" fill-opacity="0.6"/>
</svg>
